<?xml version="1.0" encoding="UTF-8"?>
<svg xmlns="http://www.w3.org/2000/svg" xmlns:xlink="http://www.w3.org/1999/xlink" width="530.35pt" height="530.35pt" viewBox="0 0 530.35 530.35" version="1.1">
<g id="surface1">
<path style=" stroke:none;fill-rule:evenodd;fill:rgb(98.399353%,91.799927%,12.5%);fill-opacity:1;" d="M 0 530.351563 L 530.347656 530.351563 L 530.347656 0.00390625 L 0 0.00390625 Z M 0 530.351563 "/>
<path style=" stroke:none;fill-rule:evenodd;fill:rgb(0%,0.39978%,0.799561%);fill-opacity:1;" d="M 189.664063 419.890625 C 191.382813 446.894531 212.339844 459.632813 238.078125 453.578125 C 243.769531 452.222656 246.476563 450.058594 250.722656 448.609375 L 246.207031 437.230469 C 239.703125 439.21875 231.304688 444.816406 219.5625 440.753906 C 211.796875 437.953125 206.375 431.179688 206.105469 421.0625 L 252.890625 420.972656 C 252.890625 399.660156 246.476563 378.796875 221.910156 378.617188 C 197.886719 378.34375 188.402344 398.578125 189.664063 419.890625 M 205.925781 409.414063 C 206.734375 399.570313 211.253906 391.347656 221.367188 391.257813 C 231.121094 391.257813 236.089844 399.75 236.183594 409.414063 Z M 136.019531 447.976563 L 131.503906 437.320313 C 127.257813 438.492188 124.640625 440.574219 119.128906 441.566406 C 104.769531 444.003906 91.761719 437.320313 91.492188 420.972656 L 138.1875 420.972656 C 138.1875 404.625 135.296875 385.839844 117.050781 380.148438 C 108.652344 377.441406 98.355469 378.4375 91.402344 382.589844 C 66.113281 397.761719 67.378906 455.472656 111.722656 454.933594 C 120.214844 454.84375 131.050781 452.496094 136.019531 447.976563 M 91.21875 409.234375 C 92.394531 399.480469 96.097656 391.4375 106.484375 391.257813 C 116.507813 391.078125 121.296875 399.386719 121.746094 409.414063 Z M 261.199219 418.808594 C 262.191406 461.707031 308.796875 459.359375 321.351563 447.976563 C 320.898438 446.171875 317.738281 438.132813 316.652344 437.050781 C 308.074219 440.574219 299.671875 444.546875 289.289063 439.398438 C 273.121094 431.449219 274.296875 401.371094 290.644531 393.878906 C 296.964844 390.988281 305.726563 391.257813 312.316406 394.058594 C 314.667969 395.144531 316.382813 396.316406 318.28125 397.128906 L 318.28125 383.222656 C 308.707031 379.429688 301.753906 376.898438 289.648438 379.609375 C 271.40625 383.851563 260.835938 400.5625 261.199219 418.808594 M 153.359375 380.421875 L 153.539063 364.34375 C 153.359375 358.65625 158.507813 349.804688 165.550781 346.550781 C 172.054688 343.570313 184.429688 343.390625 190.570313 347.363281 L 187.589844 360.097656 C 169.253906 356.035156 169.34375 359.46875 169.34375 380.421875 L 189.304688 380.421875 L 184.15625 393.15625 L 169.34375 393.246094 L 169.34375 453.21875 C 166.363281 453.578125 155.980469 453.757813 153.359375 453.035156 L 153.359375 393.335938 L 145.320313 393.15625 L 140.355469 380.511719 Z M 344.289063 59.792969 C 395.683594 77.765625 425.488281 129.15625 413.925781 189.667969 C 400.46875 260.207031 335.621094 318.285156 265.171875 325.6875 C 259.574219 325.507813 259.484375 322.347656 259.300781 317.652344 C 259.574219 307.898438 259.933594 298.050781 260.203125 288.296875 C 260.296875 286.851563 259.753906 286.398438 259.121094 286.21875 C 251.894531 285.496094 244.761719 283.871094 237.714844 281.703125 C 230.128906 278.722656 222.453125 274.390625 214.773438 269.417969 C 211.253906 267.703125 211.703125 259.578125 211.796875 256.414063 C 212.425781 250.632813 216.671875 237.175781 223.535156 236.546875 C 231.753906 236.09375 235.640625 240.429688 243.769531 244.402344 C 258.039063 251.175781 277.996094 255.148438 292.808594 248.195313 C 299.941406 243.859375 301.660156 237.988281 298.320313 230.585938 C 292.539063 218.480469 264.8125 208.546875 252.257813 202.496094 C 222.183594 189.667969 205.382813 163.660156 210.710938 132.679688 C 214.6875 109.828125 236.089844 92.488281 258.488281 89.328125 L 258.488281 78.398438 C 230.851563 86.4375 209.808594 102.332031 190.933594 120.847656 C 163.566406 147.582031 147.488281 181.359375 146.132813 224.53125 C 148.300781 277.367188 175.757813 300.761719 204.480469 318.285156 C 155.164063 299.226563 126.984375 248.828125 138.277344 189.667969 C 152.09375 117.234375 220.015625 57.984375 292.71875 53.199219 C 295.609375 54.914063 295.789063 55.1875 297.328125 59.070313 C 296.691406 68.191406 296.148438 77.316406 295.519531 86.4375 C 309.878906 89.328125 323.425781 93.390625 334.355469 102.695313 C 334.71875 123.648438 319.003906 132.40625 313.039063 129.246094 C 313.3125 128.253906 289.378906 121.660156 284.410156 120.484375 C 278.359375 119.492188 272.398438 119.855469 266.4375 122.566406 C 259.394531 125.90625 256.050781 130.871094 259.394531 138.640625 C 262.28125 144.421875 267.070313 148.214844 272.308594 151.464844 C 287.394531 159.59375 302.476563 167.8125 317.558594 175.941406 C 330.5625 183.257813 339.867188 192.742188 345.828125 204.210938 C 350.160156 215.59375 351.152344 227.152344 348.628906 238.890625 C 345.644531 248.46875 342.035156 256.777344 336.523438 262.015625 C 331.917969 267.25 326.859375 271.316406 321.441406 274.207031 C 313.761719 278.273438 306.085938 281.882813 298.140625 283.148438 C 297.867188 288.027344 297.6875 292.8125 297.417969 297.691406 C 298.050781 298.050781 298.683594 297.871094 299.402344 297.691406 C 316.472656 292.179688 331.46875 282.515625 346.097656 271.949219 C 365.066406 255.242188 382.769531 237.71875 392.070313 215.050781 C 398.394531 202.40625 403.269531 188.40625 405.617188 171.96875 C 410.765625 125.90625 393.964844 82.554688 344.289063 59.792969 M 304.644531 40.464844 C 387.644531 40.464844 442.199219 107.210938 426.480469 189.667969 C 410.765625 272.128906 330.652344 338.875 247.652344 338.875 C 164.558594 338.875 110.007813 272.128906 125.722656 189.667969 C 141.527344 107.210938 221.550781 40.464844 304.644531 40.464844 M 337.605469 393.605469 L 337.789063 437.050781 C 338.148438 441.203125 338.691406 443.554688 339.503906 445.269531 C 345.375 458.09375 365.695313 456.921875 377.527344 449.242188 L 372.289063 438.3125 C 368.40625 439.761719 363.800781 443.011719 358.289063 441.292969 C 353.414063 439.851563 353.773438 434.070313 353.773438 428.378906 L 353.773438 393.246094 L 386.5625 393.335938 L 412.933594 453.488281 C 413.476563 456.109375 407.605469 466.496094 406.339844 468.210938 C 397.21875 481.035156 388.730469 475.613281 381.410156 473.992188 L 377.796875 486.996094 C 391.710938 492.324219 406.25 490.339844 414.378906 481.488281 C 421.601563 473.628906 425.757813 462.613281 430.273438 450.328125 L 455.5625 380.421875 L 438.761719 380.421875 L 420.972656 434.160156 C 419.164063 432.171875 405.4375 397.761719 402.90625 391.894531 C 399.476563 383.941406 394.507813 380.511719 383.9375 380.421875 C 374.003906 380.328125 363.980469 380.421875 353.773438 380.421875 L 353.773438 358.835938 C 350.253906 359.648438 340.226563 362.628906 337.605469 363.984375 L 337.605469 380.148438 L 324.605469 380.328125 L 324.691406 393.246094 "/>
</g>
</svg>
